# Blender v2.83.19 Release Candidate OBJ File: 'asteroid.2blend.blend'
# www.blender.org
mtllib asteroid2.mtl
o Icosphere
v 0.000000 -0.805065 0.000000
v 0.723607 -0.360041 1.027217
v -0.276388 -0.360041 1.662088
v -0.894426 -0.360038 0.000000
v -0.276388 -0.360041 -1.662088
v 0.723607 -0.360041 -1.027217
v 0.276388 0.360041 1.662088
v -0.723607 0.360041 1.027217
v -1.008082 0.360041 -1.027217
v 0.276388 0.360041 -1.662088
v 0.894426 0.360038 0.000000
v 0.000000 1.049884 0.000000
v -0.162456 -0.684832 0.976943
v 0.425323 -0.684832 0.603779
v 0.262869 -0.423253 1.580732
v 0.850648 -0.423251 0.000000
v 0.425323 -0.684832 -0.603779
v -0.525730 -0.684830 0.000000
v -0.688189 -0.423252 0.976947
v -0.162456 -0.684832 -0.976943
v -1.182696 -0.423252 -0.976947
v 0.262869 -0.423253 -1.580732
v 0.951058 0.000000 0.603781
v 0.951058 0.000000 -0.603781
v 0.000000 0.000000 1.953905
v 0.587786 0.000000 1.580742
v -0.951058 0.000000 0.603781
v -0.587786 0.000000 1.580742
v -1.407875 0.000000 -1.580742
v -1.221545 0.000000 -0.603781
v 0.587786 0.000000 -1.209450
v 0.000000 0.000000 -1.953905
v 0.688189 0.423252 0.976947
v -0.262869 0.897439 1.580732
v -0.850648 0.423251 0.000000
v -0.262869 0.423253 -1.580732
v 0.688189 0.423252 -0.976947
v 0.162456 1.241930 0.976943
v 0.525730 0.732769 0.000000
v -0.425323 1.422375 0.603779
v -0.425323 0.684832 -0.603779
v 0.162456 0.684832 -0.976943
vt 0.171126 0.739667
vt 0.207641 0.649407
vt 0.218263 0.783165
vt 0.218263 0.577383
vt 0.163908 0.538968
vt 0.153388 0.850783
vt 0.102671 0.758812
vt 0.136202 0.634356
vt 0.384745 0.994549
vt 0.315771 0.999166
vt 0.364675 0.917944
vt 0.570907 0.459998
vt 0.501289 0.461625
vt 0.545446 0.348757
vt 0.313848 0.452598
vt 0.253236 0.392488
vt 0.318333 0.351068
vt 0.039676 0.763515
vt 0.066487 0.973420
vt 0.000000 1.000000
vt 0.000000 0.136903
vt 0.039452 0.056450
vt 0.030481 0.199553
vt 0.431531 0.905698
vt 0.616466 0.373615
vt 0.386238 0.443283
vt 0.103206 0.017884
vt 0.253236 0.000000
vt 0.084184 0.113856
vt 0.000019 0.258689
vt 0.515544 0.247578
vt 0.459824 0.229358
vt 0.541914 0.024030
vt 0.325437 0.229916
vt 0.337236 0.040794
vt 0.440421 0.000000
vt 0.436889 0.368721
vt 0.386778 0.284557
vt 0.432428 0.218364
vt 0.076103 0.234569
vt 0.142907 0.202901
vt 0.118535 0.327890
vt 0.336438 0.810835
vt 0.278063 0.754411
vt 0.350903 0.684869
vt 0.291389 0.641096
vt 0.365731 0.557913
vt 0.044751 0.316095
vt 0.193188 0.289570
vt 0.174066 0.438380
vt 0.235856 0.143174
vt 0.253236 0.510551
vt 0.240197 0.215772
vt 0.183421 0.538968
vt 0.616466 0.000000
vt 0.593208 0.120285
vt 0.431531 0.547546
vt 0.403136 0.797713
vt 0.287377 0.891182
vt 0.260047 0.261598
vt 0.468748 0.336767
vt 0.058937 0.648373
vt 0.005360 0.686106
vt 0.440421 0.514543
vt 0.364427 0.547546
vt 0.616202 0.501846
vt 0.440421 0.439601
vt 0.253236 0.949018
vt 0.096723 0.551777
vt 0.274639 0.482466
vt 0.191716 0.889154
vt 0.545019 0.556238
vt 0.468322 0.544248
vn 0.0862 -0.9870 0.1358
vn 0.6433 -0.7551 0.1260
vn -0.2222 -0.9715 0.0826
vn -0.2222 -0.9715 -0.0826
vn 0.0862 -0.9870 -0.1358
vn 0.9022 -0.4091 0.1368
vn 0.0390 -0.6471 0.7614
vn -0.8960 -0.4133 0.1624
vn -0.2981 -0.8303 -0.4709
vn 0.7700 -0.0321 -0.6373
vn 0.9221 -0.1793 0.3429
vn -0.5171 -0.2632 0.8145
vn -0.8657 -0.4614 0.1939
vn -0.2210 -0.5061 -0.8337
vn 0.8559 0.0630 -0.5133
vn 0.7355 0.4723 0.4857
vn -0.8581 0.3790 0.3463
vn -0.4995 0.8660 0.0233
vn 0.0424 0.9055 -0.4222
vn 0.7071 0.6994 -0.1040
vn 0.5029 0.8337 -0.2279
vn 0.4360 0.8763 -0.2051
vn 0.4204 0.8449 -0.3306
vn -0.2377 0.8963 -0.3744
vn -0.1791 0.9425 -0.2821
vn -0.2945 0.9098 -0.2926
vn 0.0075 0.8534 -0.5212
vn -0.7844 0.5293 -0.3233
vn -0.9385 0.3176 0.1356
vn 0.4218 0.8738 -0.2419
vn -0.0335 0.8781 0.4774
vn 0.4751 0.5773 0.6641
vn 0.5006 0.8299 -0.2464
vn 0.8410 0.5401 0.0313
vn 0.7071 0.6994 0.1040
vn 0.8960 0.4133 -0.1624
vn 0.8549 0.0789 -0.5128
vn 0.8507 0.0833 -0.5190
vn -0.0390 0.6471 -0.7614
vn -0.2106 0.5697 -0.7944
vn -0.3263 0.8826 -0.3385
vn -0.8080 0.5825 0.0880
vn -0.8574 0.4774 0.1921
vn -0.9022 0.4091 0.1368
vn -0.8568 0.3102 0.4120
vn -0.5262 0.1905 0.8288
vn 0.3130 0.4414 0.8410
vn 0.7152 0.5108 0.4770
vn 0.9038 0.2650 0.3361
vn 0.8960 0.4133 0.1624
vn 0.7809 -0.0997 -0.6166
vn 0.7835 -0.0588 -0.6186
vn 0.0390 -0.6471 -0.7614
vn -0.7660 0.6260 0.1461
vn -0.9518 -0.2474 0.1815
vn -0.8976 -0.3350 0.2865
vn -0.9221 0.1793 0.3429
vn -0.9038 -0.2650 0.3361
vn -0.7152 -0.5108 0.4770
vn 0.5171 0.2632 0.8145
vn 0.4957 -0.3805 0.7807
vn 0.6830 -0.5243 0.5086
vn 0.9879 0.1554 0.0000
vn 0.9730 -0.2308 0.0000
vn 0.9022 -0.4091 -0.1368
vn 0.4745 -0.8274 -0.3004
vn 0.1791 -0.9425 -0.2821
vn -0.0424 -0.9055 -0.4222
vn -0.2292 -0.8938 -0.3856
vn -0.2473 -0.9646 -0.0920
vn -0.6422 -0.7291 0.2367
vn -0.6583 -0.7473 0.0906
vn -0.4395 -0.8833 0.1634
vn -0.4204 -0.8449 0.3306
vn 0.6433 -0.7551 -0.1260
vn 0.5239 -0.8518 0.0000
vn 0.2720 -0.9623 0.0000
vn -0.0424 -0.9055 0.4222
vn 0.1791 -0.9425 0.2821
vn 0.4745 -0.8274 0.3004
usemtl Material.001
s off
f 1/1/1 14/2/1 13/3/1
f 2/4/2 14/2/2 16/5/2
f 1/1/3 13/3/3 18/6/3
f 1/1/4 18/6/4 20/7/4
f 1/1/5 20/7/5 17/8/5
f 2/9/6 16/10/6 23/11/6
f 3/12/7 15/13/7 25/14/7
f 4/15/8 19/16/8 27/17/8
f 5/18/9 21/19/9 29/20/9
f 6/21/10 22/22/10 31/23/10
f 2/9/11 23/11/11 26/24/11
f 3/12/12 25/14/12 28/25/12
f 4/15/13 27/17/13 30/26/13
f 5/27/14 29/28/14 32/29/14
f 6/21/15 31/23/15 24/30/15
f 7/31/16 33/32/16 38/33/16
f 8/34/17 34/35/17 40/36/17
f 9/37/18 35/38/18 41/39/18
f 10/40/19 36/41/19 42/42/19
f 11/43/20 37/44/20 39/45/20
f 39/45/21 42/46/21 12/47/21
f 39/45/22 37/44/22 42/46/22
f 37/48/23 10/40/23 42/42/23
f 42/42/24 41/49/24 12/50/24
f 42/42/25 36/41/25 41/49/25
f 36/41/26 9/51/26 41/49/26
f 41/49/27 40/52/27 12/50/27
f 41/49/28 35/53/28 40/52/28
f 35/38/29 8/34/29 40/36/29
f 40/52/30 38/54/30 12/50/30
f 40/55/31 34/56/31 38/33/31
f 34/56/32 7/31/32 38/33/32
f 38/57/33 39/45/33 12/47/33
f 38/57/34 33/58/34 39/45/34
f 33/58/35 11/43/35 39/45/35
f 24/59/36 37/44/36 11/43/36
f 24/30/37 31/23/37 37/48/37
f 31/23/38 10/40/38 37/48/38
f 32/29/39 36/41/39 10/40/39
f 32/29/40 29/28/40 36/41/40
f 29/28/41 9/51/41 36/41/41
f 30/26/42 35/38/42 9/37/42
f 30/26/43 27/17/43 35/38/43
f 27/17/44 8/34/44 35/38/44
f 28/60/45 34/35/45 8/34/45
f 28/25/46 25/14/46 34/56/46
f 25/14/47 7/31/47 34/56/47
f 26/61/48 33/32/48 7/31/48
f 26/24/49 23/11/49 33/58/49
f 23/11/50 11/43/50 33/58/50
f 31/23/51 32/29/51 10/40/51
f 31/23/52 22/22/52 32/29/52
f 22/62/53 5/18/53 32/63/53
f 29/64/54 30/26/54 9/37/54
f 29/64/55 21/65/55 30/26/55
f 21/65/56 4/15/56 30/26/56
f 27/17/57 28/60/57 8/34/57
f 27/17/58 19/16/58 28/60/58
f 19/66/59 3/12/59 28/25/59
f 25/14/60 26/61/60 7/31/60
f 25/14/61 15/13/61 26/61/61
f 15/13/62 2/67/62 26/61/62
f 23/11/63 24/59/63 11/43/63
f 23/11/64 16/10/64 24/59/64
f 16/10/65 6/68/65 24/59/65
f 17/8/66 22/62/66 6/69/66
f 17/8/67 20/7/67 22/62/67
f 20/7/68 5/18/68 22/62/68
f 20/7/69 21/19/69 5/18/69
f 20/7/70 18/6/70 21/19/70
f 18/70/71 4/15/71 21/65/71
f 18/70/72 19/16/72 4/15/72
f 18/6/73 13/3/73 19/71/73
f 13/72/74 3/12/74 19/66/74
f 16/5/75 17/8/75 6/69/75
f 16/5/76 14/2/76 17/8/76
f 14/2/77 1/1/77 17/8/77
f 13/72/78 15/13/78 3/12/78
f 13/72/79 14/73/79 15/13/79
f 14/73/80 2/67/80 15/13/80
