# Blender v2.93.3 OBJ File: ''
# www.blender.org
mtllib texture_cone.mtl
o Cone
v 0.195090 -1.000000 -0.980785
v 0.555570 -1.000000 -0.831470
v 0.831470 -1.000000 -0.555570
v 0.980785 -1.000000 -0.195090
v 0.980785 -1.000000 0.195090
v 0.831470 -1.000000 0.555570
v 0.555570 -1.000000 0.831470
v 0.195090 -1.000000 0.980785
v -0.195090 -1.000000 0.980785
v -0.555570 -1.000000 0.831470
v -0.831469 -1.000000 0.555570
v -0.980785 -1.000000 0.195090
v -0.980785 -1.000000 -0.195090
v -0.831470 -1.000000 -0.555570
v -0.555570 -1.000000 -0.831470
v -0.195090 -1.000000 -0.980785
v 0.000000 1.000000 0.000000
vt 0.250000 0.250000
vt 0.383337 0.449553
vt 0.296822 0.485388
vt 0.449553 0.383337
vt 0.485388 0.296822
vt 0.485388 0.203178
vt 0.449553 0.116663
vt 0.383337 0.050447
vt 0.296822 0.014612
vt 0.203178 0.014612
vt 0.116663 0.050447
vt 0.050447 0.116663
vt 0.014612 0.203178
vt 0.014612 0.296822
vt 0.050447 0.383337
vt 0.116663 0.449553
vt 0.203178 0.485388
vt 0.796822 0.485388
vt 0.883337 0.449553
vt 0.949553 0.383337
vt 0.985388 0.296822
vt 0.985388 0.203178
vt 0.949553 0.116663
vt 0.883337 0.050447
vt 0.796822 0.014612
vt 0.703178 0.014612
vt 0.616663 0.050447
vt 0.550447 0.116663
vt 0.514612 0.203178
vt 0.514612 0.296822
vt 0.550447 0.383337
vt 0.616663 0.449553
vt 0.703178 0.485388
vn 0.3436 0.4403 -0.8295
vn 0.6349 0.4403 -0.6349
vn 0.8295 0.4403 -0.3436
vn 0.8979 0.4403 0.0000
vn 0.8295 0.4403 0.3436
vn 0.6349 0.4403 0.6349
vn 0.3436 0.4403 0.8295
vn 0.0000 0.4403 0.8979
vn -0.3436 0.4403 0.8295
vn -0.6349 0.4403 0.6349
vn -0.8295 0.4403 0.3436
vn -0.8979 0.4403 0.0000
vn -0.8295 0.4403 -0.3436
vn -0.6349 0.4403 -0.6349
vn -0.3436 0.4403 -0.8295
vn 0.0000 -1.0000 -0.0000
vn 0.0000 0.4403 -0.8979
usemtl Material.002
s off
f 17/1/1 2/2/1 1/3/1
f 17/1/2 3/4/2 2/2/2
f 17/1/3 4/5/3 3/4/3
f 17/1/4 5/6/4 4/5/4
f 17/1/5 6/7/5 5/6/5
f 17/1/6 7/8/6 6/7/6
f 17/1/7 8/9/7 7/8/7
f 17/1/8 9/10/8 8/9/8
f 17/1/9 10/11/9 9/10/9
f 17/1/10 11/12/10 10/11/10
f 17/1/11 12/13/11 11/12/11
f 17/1/12 13/14/12 12/13/12
f 17/1/13 14/15/13 13/14/13
f 17/1/14 15/16/14 14/15/14
f 17/1/15 16/17/15 15/16/15
f 1/18/16 2/19/16 3/20/16 4/21/16 5/22/16 6/23/16 7/24/16 8/25/16 9/26/16 10/27/16 11/28/16 12/29/16 13/30/16 14/31/16 15/32/16 16/33/16
f 16/17/17 17/1/17 1/3/17
